<svg width="493" height="97" viewBox="0 0 493 97" fill="none" xmlns="http://www.w3.org/2000/svg" shape-rendering="crispEdges">
  <g fill="#fff" fill-opacity="0.1" stroke="#fff" stroke-opacity="0.1" stroke-width="2">
    <path d="M24 12H12V96H24V12Z"/><path d="M72 12H60V96H72V12Z"/><path d="M72 48H12V60H72V48Z"/><path d="M108 24H96V96H108V24Z"/><path d="M156 24H144V96H156V24Z"/><path d="M144 12H108V24H144V12Z"/><path d="M144 48H108V60H144V48Z"/><path d="M192 12H180V96H192V12Z"/><path d="M228 12H192V24H228V12Z"/><path d="M240 24H228V48H240V24Z"/><path d="M228 48H192V60H228V48Z"/><path d="M228 60H216V72H228V60Z"/><path d="M240 72H228V96H240V72Z"/><path d="M276 12H264V96H276V12Z"/><path d="M312 12H276V24H312V12Z"/><path d="M324 24H312V48H324V24Z"/><path d="M312 48H276V60H312V48Z"/><path d="M324 60H312V84H324V60Z"/><path d="M312 84H276V96H312V84Z"/><path d="M396 12H360V24H396V12Z"/><path d="M360 24H348V84H360V24Z"/><path d="M408 24H396V84H408V24Z"/><path d="M396 84H360V96H396V84Z"/><path d="M444 12H432V96H444V12Z"/><path d="M480 12H444V24H480V12Z"/><path d="M492 24H480V48H492V24Z"/><path d="M480 48H444V60H480V48Z"/><path d="M480 60H468V72H480V60Z"/><path d="M492 72H480V96H492V72Z"/>
  </g>
  <g fill="#fff" fill-opacity="0.2" stroke="#fff" stroke-opacity="0.2" stroke-width="2">
    <path d="M20 8H8V92H20V8Z"/><path d="M68 8H56V92H68V8Z"/><path d="M68 44H8V56H68V44Z"/><path d="M104 20H92V92H104V20Z"/><path d="M152 20H140V92H152V20Z"/><path d="M140 8H104V20H140V8Z"/><path d="M140 44H104V56H140V44Z"/><path d="M188 8H176V92H188V8Z"/><path d="M224 8H188V20H224V8Z"/><path d="M236 20H224V44H236V20Z"/><path d="M224 44H188V56H224V44Z"/><path d="M224 56H212V68H224V56Z"/><path d="M236 68H224V92H236V68Z"/><path d="M272 8H260V92H272V8Z"/><path d="M308 8H272V20H308V8Z"/><path d="M320 20H308V44H320V20Z"/><path d="M308 44H272V56H308V44Z"/><path d="M320 56H308V80H320V56Z"/><path d="M308 80H272V92H308V80Z"/><path d="M392 8H356V20H392V8Z"/><path d="M356 20H344V80H356V20Z"/><path d="M404 20H392V80H404V20Z"/><path d="M392 80H356V92H392V80Z"/><path d="M440 8H428V92H440V8Z"/><path d="M476 8H440V20H476V8Z"/><path d="M488 20H476V44H488V20Z"/><path d="M476 44H440V56H476V44Z"/><path d="M476 56H464V68H476V56Z"/><path d="M488 68H476V92H488V68Z"/>
  </g>
  <g fill="#fff">
    <path d="M12 0H0V84H12V0Z"/><path d="M60 0H48V84H60V0Z"/><path d="M60 36H0V48H60V36Z"/><path d="M96 12H84V84H96V12Z"/><path d="M144 12H132V84H144V12Z"/><path d="M132 0H96V12H132V0Z"/><path d="M132 36H96V48H132V36Z"/><path d="M180 0H168V84H180V0Z"/><path d="M216 0H180V12H216V0Z"/><path d="M228 12H216V36H228V12Z"/><path d="M216 36H180V48H216V36Z"/><path d="M216 48H204V60H216V48Z"/><path d="M228 60H216V84H228V60Z"/><path d="M264 0H252V84H264V0Z"/><path d="M300 0H264V12H300V0Z"/><path d="M312 12H300V36H312V12Z"/><path d="M300 36H264V48H300V36Z"/><path d="M312 48H300V72H312V48Z"/><path d="M300 72H264V84H300V72Z"/><path d="M384 0H348V12H384V0Z"/><path d="M348 12H336V72H348V12Z"/><path d="M396 12H384V72H396V12Z"/><path d="M384 72H348V84H384V72Z"/><path d="M432 0H420V84H432V0Z"/><path d="M468 0H432V12H468V0Z"/><path d="M480 12H468V36H480V12Z"/><path d="M468 36H432V48H468V36Z"/><path d="M468 48H456V60H468V48Z"/><path d="M480 60H468V84H480V60Z"/>
  </g>
  <path opacity="0.05" d="M493 50H0V97H493V50Z" fill="black"/>
</svg>
