<svg xmlns="http://www.w3.org/2000/svg" viewBox="0 0 100 100" width="100%" height="100%">
  <line x1="5" y1="95" x2="95" y2="95" stroke="#000000" stroke-width="4" stroke-linecap="round" />

  <path
    d="M 20 95 C 20 40, 45 20, 65 25 C 80 28, 90 35, 90 45 C 90 55, 80 60, 70 60 C 60 60, 50 70, 50 95 Z"
    fill="#000000"
  />

  <circle cx="76" cy="40" r="3" fill="#ffffff" />
  <circle cx="60" cy="35" r="2.5" fill="#ffffff" />

  <rect x="58" y="65" width="28" height="28" rx="4" fill="#000000" stroke="#ffffff" stroke-width="4" />

  <line x1="66" y1="73" x2="82" y2="73" stroke="#ffffff" stroke-width="3" stroke-linecap="round" />
  <line x1="66" y1="81" x2="76" y2="81" stroke="#ffffff" stroke-width="3" stroke-linecap="round" />

  <path d="M 90 44 L 98 45 M 88 48 L 96 50 M 85 52 L 92 54" stroke="#000000" stroke-width="2.5" stroke-linecap="round" />
</svg>
